<svg width="26" height="26" viewBox="0 0 26 26" fill="none" xmlns="http://www.w3.org/2000/svg">
<path d="M5.65 4.6001H20.35C21.1854 4.6001 21.9866 4.93197 22.5774 5.52271C23.1681 6.11345 23.5 6.91467 23.5 7.7501V18.2501C23.5 19.0855 23.1681 19.8867 22.5774 20.4775C21.9866 21.0682 21.1854 21.4001 20.35 21.4001H5.65C4.81457 21.4001 4.01335 21.0682 3.42262 20.4775C2.83187 19.8867 2.5 19.0855 2.5 18.2501V7.7501C2.5 6.91467 2.83187 6.11345 3.42262 5.52271C4.01335 4.93197 4.81457 4.6001 5.65 4.6001ZM5.65 6.7001L12.475 11.3936C12.6346 11.4858 12.8157 11.5343 13 11.5343C13.1843 11.5343 13.3654 11.4858 13.525 11.3936L20.35 6.7001H5.65Z" fill="#F8F8F8"/>
</svg>
