<svg width="32" height="32" viewBox="0 0 32 32" fill="none" xmlns="http://www.w3.org/2000/svg">
<path d="M9.38723 7.18449C9.87233 6.87416 10.4491 6.73934 11.0215 6.80247C11.5939 6.8656 12.1274 7.12287 12.5332 7.53146L12.6741 7.68665L13.9822 9.24229C14.3792 9.71447 14.6286 10.2929 14.6994 10.9058C14.7703 11.5186 14.6594 12.1387 14.3806 12.689L14.2647 12.8947L13.3348 14.4327C13.1681 14.7131 13.5758 15.4998 14.805 16.6941C15.9112 17.7687 16.685 18.1976 16.9913 18.1461L17.0434 18.1314L17.1042 18.101L19.3738 16.6364C19.6787 16.4393 20.034 16.3341 20.3971 16.3336C20.7602 16.3331 21.1157 16.4372 21.4212 16.6334L21.5711 16.7415L23.8622 18.5541C24.3112 18.9094 24.6259 19.407 24.7543 19.965C24.8828 20.523 24.8174 21.1081 24.5689 21.624L24.4643 21.8186L23.984 22.628C23.5524 23.354 22.9214 23.9408 22.166 24.3187C21.4107 24.6965 20.5627 24.8495 19.7229 24.7595C17.1091 24.479 14.3656 22.9231 11.479 20.119C8.58638 17.3074 6.94954 14.606 6.59811 11.9947C6.49199 11.2052 6.60165 10.4018 6.91545 9.66973C7.22925 8.93763 7.73547 8.30419 8.38035 7.83668L8.59231 7.69276L9.38723 7.18449Z" fill="#F8F8F8"/>
</svg>
