<svg width="159" height="20" viewBox="0 0 159 20" fill="none" xmlns="http://www.w3.org/2000/svg">
<path d="M6.44 19.168C5.272 19.168 4.216 18.968 3.272 18.568C2.344 18.168 1.608 17.592 1.064 16.84C0.52 16.088 0.24 15.2 0.224 14.176H3.824C3.872 14.864 4.112 15.408 4.544 15.808C4.992 16.208 5.6 16.408 6.368 16.408C7.152 16.408 7.768 16.224 8.216 15.856C8.664 15.472 8.888 14.976 8.888 14.368C8.888 13.872 8.736 13.464 8.432 13.144C8.128 12.824 7.744 12.576 7.28 12.4C6.832 12.208 6.208 12 5.408 11.776C4.32 11.456 3.432 11.144 2.744 10.84C2.072 10.52 1.488 10.048 0.992 9.424C0.512 8.784 0.272 7.936 0.272 6.88C0.272 5.888 0.52 5.024 1.016 4.288C1.512 3.552 2.208 2.992 3.104 2.608C4 2.208 5.024 2.008 6.176 2.008C7.904 2.008 9.304 2.432 10.376 3.28C11.464 4.112 12.064 5.28 12.176 6.784H8.48C8.448 6.208 8.2 5.736 7.736 5.368C7.288 4.984 6.688 4.792 5.936 4.792C5.28 4.792 4.752 4.96 4.352 5.296C3.968 5.632 3.776 6.12 3.776 6.76C3.776 7.208 3.92 7.584 4.208 7.888C4.512 8.176 4.88 8.416 5.312 8.608C5.76 8.784 6.384 8.992 7.184 9.232C8.272 9.552 9.16 9.872 9.848 10.192C10.536 10.512 11.128 10.992 11.624 11.632C12.12 12.272 12.368 13.112 12.368 14.152C12.368 15.048 12.136 15.88 11.672 16.648C11.208 17.416 10.528 18.032 9.632 18.496C8.736 18.944 7.672 19.168 6.44 19.168ZM14.417 12.304C14.417 10.96 14.681 9.768 15.209 8.728C15.753 7.688 16.481 6.888 17.393 6.328C18.321 5.768 19.353 5.488 20.489 5.488C21.481 5.488 22.345 5.688 23.081 6.088C23.833 6.488 24.433 6.992 24.881 7.6V5.704H28.265V19H24.881V17.056C24.449 17.68 23.849 18.2 23.081 18.616C22.329 19.016 21.457 19.216 20.465 19.216C19.345 19.216 18.321 18.928 17.393 18.352C16.481 17.776 15.753 16.968 15.209 15.928C14.681 14.872 14.417 13.664 14.417 12.304ZM24.881 12.352C24.881 11.536 24.721 10.84 24.401 10.264C24.081 9.672 23.649 9.224 23.105 8.92C22.561 8.6 21.977 8.44 21.353 8.44C20.729 8.44 20.153 8.592 19.625 8.896C19.097 9.2 18.665 9.648 18.329 10.24C18.009 10.816 17.849 11.504 17.849 12.304C17.849 13.104 18.009 13.808 18.329 14.416C18.665 15.008 19.097 15.464 19.625 15.784C20.169 16.104 20.745 16.264 21.353 16.264C21.977 16.264 22.561 16.112 23.105 15.808C23.649 15.488 24.081 15.04 24.401 14.464C24.721 13.872 24.881 13.168 24.881 12.352ZM48.0586 5.512C49.6906 5.512 51.0026 6.016 51.9946 7.024C53.0026 8.016 53.5066 9.408 53.5066 11.2V19H50.1466V11.656C50.1466 10.616 49.8826 9.824 49.3546 9.28C48.8266 8.72 48.1066 8.44 47.1946 8.44C46.2826 8.44 45.5546 8.72 45.0106 9.28C44.4826 9.824 44.2186 10.616 44.2186 11.656V19H40.8586V11.656C40.8586 10.616 40.5946 9.824 40.0666 9.28C39.5386 8.72 38.8186 8.44 37.9066 8.44C36.9786 8.44 36.2426 8.72 35.6986 9.28C35.1706 9.824 34.9066 10.616 34.9066 11.656V19H31.5466V5.704H34.9066V7.312C35.3386 6.752 35.8906 6.312 36.5626 5.992C37.2506 5.672 38.0026 5.512 38.8186 5.512C39.8586 5.512 40.7866 5.736 41.6026 6.184C42.4186 6.616 43.0506 7.24 43.4986 8.056C43.9306 7.288 44.5546 6.672 45.3706 6.208C46.2026 5.744 47.0986 5.512 48.0586 5.512Z" fill="#7456FF"/>
<path d="M55.8791 10.6C55.8791 8.952 56.2471 7.48 56.9831 6.184C57.7351 4.872 58.7511 3.856 60.0311 3.136C61.3271 2.4 62.7751 2.032 64.3751 2.032C66.2471 2.032 67.8871 2.512 69.2951 3.472C70.7031 4.432 71.6871 5.76 72.2471 7.456H68.3831C67.9991 6.656 67.4551 6.056 66.7511 5.656C66.0631 5.256 65.2631 5.056 64.3511 5.056C63.3751 5.056 62.5031 5.288 61.7351 5.752C60.9831 6.2 60.3911 6.84 59.9591 7.672C59.5431 8.504 59.3351 9.48 59.3351 10.6C59.3351 11.704 59.5431 12.68 59.9591 13.528C60.3911 14.36 60.9831 15.008 61.7351 15.472C62.5031 15.92 63.3751 16.144 64.3511 16.144C65.2631 16.144 66.0631 15.944 66.7511 15.544C67.4551 15.128 67.9991 14.52 68.3831 13.72H72.2471C71.6871 15.432 70.7031 16.768 69.2951 17.728C67.9031 18.672 66.2631 19.144 64.3751 19.144C62.7751 19.144 61.3271 18.784 60.0311 18.064C58.7511 17.328 57.7351 16.312 56.9831 15.016C56.2471 13.72 55.8791 12.248 55.8791 10.6ZM78.4769 7.768C78.9089 7.064 79.4689 6.512 80.1569 6.112C80.8609 5.712 81.6609 5.512 82.5569 5.512V9.04H81.6689C80.6129 9.04 79.8129 9.288 79.2689 9.784C78.7409 10.28 78.4769 11.144 78.4769 12.376V19H75.1169V5.704H78.4769V7.768ZM97.1801 12.064C97.1801 12.544 97.1481 12.976 97.0841 13.36H87.3641C87.4441 14.32 87.7801 15.072 88.3721 15.616C88.9641 16.16 89.6921 16.432 90.5561 16.432C91.8041 16.432 92.6921 15.896 93.2201 14.824H96.8441C96.4601 16.104 95.7241 17.16 94.6361 17.992C93.5481 18.808 92.2121 19.216 90.6281 19.216C89.3481 19.216 88.1961 18.936 87.1721 18.376C86.1641 17.8 85.3721 16.992 84.7961 15.952C84.2361 14.912 83.9561 13.712 83.9561 12.352C83.9561 10.976 84.2361 9.768 84.7961 8.728C85.3561 7.688 86.1401 6.888 87.1481 6.328C88.1561 5.768 89.3161 5.488 90.6281 5.488C91.8921 5.488 93.0201 5.76 94.0121 6.304C95.0201 6.848 95.7961 7.624 96.3401 8.632C96.9001 9.624 97.1801 10.768 97.1801 12.064ZM93.7001 11.104C93.6841 10.24 93.3721 9.552 92.7641 9.04C92.1561 8.512 91.4121 8.248 90.5321 8.248C89.7001 8.248 88.9961 8.504 88.4201 9.016C87.8601 9.512 87.5161 10.208 87.3881 11.104H93.7001ZM98.7686 12.304C98.7686 10.96 99.0326 9.768 99.5606 8.728C100.105 7.688 100.833 6.888 101.745 6.328C102.673 5.768 103.705 5.488 104.841 5.488C105.833 5.488 106.697 5.688 107.433 6.088C108.185 6.488 108.785 6.992 109.233 7.6V5.704H112.617V19H109.233V17.056C108.801 17.68 108.201 18.2 107.433 18.616C106.681 19.016 105.809 19.216 104.817 19.216C103.697 19.216 102.673 18.928 101.745 18.352C100.833 17.776 100.105 16.968 99.5606 15.928C99.0326 14.872 98.7686 13.664 98.7686 12.304ZM109.233 12.352C109.233 11.536 109.073 10.84 108.753 10.264C108.433 9.672 108.001 9.224 107.457 8.92C106.913 8.6 106.329 8.44 105.705 8.44C105.081 8.44 104.505 8.592 103.977 8.896C103.449 9.2 103.017 9.648 102.681 10.24C102.361 10.816 102.201 11.504 102.201 12.304C102.201 13.104 102.361 13.808 102.681 14.416C103.017 15.008 103.449 15.464 103.977 15.784C104.521 16.104 105.097 16.264 105.705 16.264C106.329 16.264 106.913 16.112 107.457 15.808C108.001 15.488 108.433 15.04 108.753 14.464C109.073 13.872 109.233 13.168 109.233 12.352ZM119.81 8.464V14.896C119.81 15.344 119.914 15.672 120.122 15.88C120.346 16.072 120.714 16.168 121.226 16.168H122.786V19H120.674C117.842 19 116.426 17.624 116.426 14.872V8.464H114.842V5.704H116.426V2.416H119.81V5.704H122.786V8.464H119.81ZM126.907 4.12C126.315 4.12 125.819 3.936 125.419 3.568C125.035 3.184 124.843 2.712 124.843 2.152C124.843 1.592 125.035 1.128 125.419 0.759999C125.819 0.375999 126.315 0.183999 126.907 0.183999C127.499 0.183999 127.987 0.375999 128.371 0.759999C128.771 1.128 128.971 1.592 128.971 2.152C128.971 2.712 128.771 3.184 128.371 3.568C127.987 3.936 127.499 4.12 126.907 4.12ZM128.563 5.704V19H125.203V5.704H128.563ZM137.427 15.904L140.787 5.704H144.363L139.443 19H135.363L130.467 5.704H134.067L137.427 15.904ZM158.61 12.064C158.61 12.544 158.578 12.976 158.514 13.36H148.794C148.874 14.32 149.21 15.072 149.802 15.616C150.394 16.16 151.122 16.432 151.986 16.432C153.234 16.432 154.122 15.896 154.65 14.824H158.274C157.89 16.104 157.154 17.16 156.066 17.992C154.978 18.808 153.642 19.216 152.058 19.216C150.778 19.216 149.626 18.936 148.602 18.376C147.594 17.8 146.802 16.992 146.226 15.952C145.666 14.912 145.386 13.712 145.386 12.352C145.386 10.976 145.666 9.768 146.226 8.728C146.786 7.688 147.57 6.888 148.578 6.328C149.586 5.768 150.746 5.488 152.058 5.488C153.322 5.488 154.45 5.76 155.442 6.304C156.45 6.848 157.226 7.624 157.77 8.632C158.33 9.624 158.61 10.768 158.61 12.064ZM155.13 11.104C155.114 10.24 154.802 9.552 154.194 9.04C153.586 8.512 152.842 8.248 151.962 8.248C151.13 8.248 150.426 8.504 149.85 9.016C149.29 9.512 148.946 10.208 148.818 11.104H155.13Z" fill="white"/>
</svg>
